<svg xmlns="http://www.w3.org/2000/svg" xmlns:xlink="http://www.w3.org/1999/xlink" width="1600" height="720"
     viewBox="0 0 1600 720" preserveAspectRatio="none">
  <g transform="matrix(1,0,0,1,-78,-108)">
        <path d="M114.96,16L1618.04,0C1618.04,0 1844.92,290.271 1658.04,442.271C1471.16,594.271 1375.36,432.059 1117.01,520.059C858.671,608.059 874.329,741.846 615.987,701.846C357.645,661.846 373.323,827.633 114.96,827.633C-143.403,827.633 114.96,16 114.96,16Z" style="fill:url(#_Linear1);"/>
        <path id="b" d="M91.209,0L1651.69,0C1651.69,0 1876.92,418.271 1618.04,506.271C1359.16,594.271 1289,506 1117.01,544.059C945.027,582.117 874.329,725.846 615.987,661.846C357.645,597.846 373.323,827.633 114.96,827.633C-143.403,827.633 91.209,0 91.209,0Z" style="fill:url(#_Linear2);"/>
        <g transform="matrix(1,0,0,1,-641.301,-727.129)">
            <clipPath id="_clip3">
                <path d="M732.51,727.129L2292.99,727.129C2292.99,727.129 2518.22,1145.4 2259.34,1233.4C2000.46,1321.4 1930.3,1233.13 1758.31,1271.19C1586.33,1309.25 1515.63,1452.97 1257.29,1388.97C998.946,1324.97 1014.62,1554.76 756.261,1554.76C497.898,1554.76 732.51,727.129 732.51,727.129Z"/>
            </clipPath>
            <g clip-path="url(#_clip3)">
                <path d="M2566.38,880.016L2341.05,1429.06C2309.84,1505.1 2235.65,1554.76 2153.27,1554.76L631,1554.75L856.344,1005.71C887.552,929.667 961.745,880 1044.11,880L2566.38,880.016Z" style="fill:rgb(136,192,208);fill-opacity:0.12;"/>
            </g>
        </g>
        <path d="M78,11.323L1618.04,0C1618.04,0 1948,228 1658,352C1368,476 1349,596 1165.5,635.5C982,675 826.342,515.5 616,659.5C405.658,803.5 373.323,787.633 114.96,763.633C-143.403,739.633 78,11.323 78,11.323Z" style="fill:rgb(112,149,196);fill-opacity:0.1;"/>
    </g>
    <defs>
        <linearGradient id="_Linear1" x1="0" y1="0" x2="1" y2="0" gradientUnits="userSpaceOnUse" gradientTransform="matrix(5.06779e-14,827.633,-827.633,5.06779e-14,865.996,0)"><stop offset="0" style="stop-color:rgb(129,161,193);stop-opacity:0.2"/><stop offset="1" style="stop-color:rgb(94,129,172);stop-opacity:0.2"/></linearGradient>
        <linearGradient id="_Linear2" x1="0" y1="0" x2="1" y2="0" gradientUnits="userSpaceOnUse" gradientTransform="matrix(5.06779e-14,827.633,-827.633,5.06779e-14,866.615,0)"><stop offset="0" style="stop-color:rgb(129,161,193);stop-opacity:1"/><stop offset="1" style="stop-color:rgb(94,129,172);stop-opacity:1"/></linearGradient>
    </defs>
</svg>
