<?xml version="1.0" encoding="UTF-8" standalone="no"?><!DOCTYPE svg PUBLIC "-//W3C//DTD SVG 1.1//EN" "http://www.w3.org/Graphics/SVG/1.1/DTD/svg11.dtd"><svg width="100%" height="100%" viewBox="0 0 500 500" version="1.1" xmlns="http://www.w3.org/2000/svg" xmlns:xlink="http://www.w3.org/1999/xlink" xml:space="preserve" xmlns:serif="http://www.serif.com/" style="fill-rule:evenodd;clip-rule:evenodd;stroke-linejoin:round;stroke-miterlimit:2;"><rect id="logo-highres" x="0" y="0" width="500" height="500" style="fill:none;"/><clipPath id="_clip1"><rect x="0" y="0" width="500" height="500"/></clipPath><g clip-path="url(#_clip1)"><path d="M336.509,244.559l-126.685,-21.638l29.304,-171.565c1.26,-7.378 5.664,-13.437 11.607,-17.037c2.324,-0.282 4.722,-0.235 7.143,0.179l58.383,9.971c-0.001,0.006 0.003,0.012 0.002,0.017c0.383,7.506 3.711,24.222 25.338,27.916c0,0 -5.006,22.144 19.396,28.786l-24.488,143.371Z" style="fill:#31333e;fill-rule:nonzero;"/><rect x="158.1" y="36.408" width="39.911" height="26.451" style="fill:#31333e;fill-rule:nonzero;"/><rect x="152.873" y="42.192" width="50.365" height="3.812" style="fill:#31333e;fill-rule:nonzero;"/><path d="M178.649,58.444l-1.187,0c-32.432,0 -58.723,26.292 -58.723,58.725l0,280.178c0,7.209 5.844,13.054 13.055,13.054l3.695,0c5.5,0 10.184,-3.412 12.106,-8.228c8.76,5.192 18.947,8.228 29.867,8.228l1.187,0c10.92,0 21.108,-3.036 29.867,-8.228c1.922,4.816 6.606,8.228 12.108,8.228l3.695,0c7.21,0 13.055,-5.845 13.055,-13.054l0,-45.671l0,-234.507c0,-32.433 -26.293,-58.725 -58.725,-58.725Z" style="fill:#31333e;fill-rule:nonzero;"/><path d="M192.619,18.514l-29.127,0c-2.978,0 -5.392,2.415 -5.392,5.393l0,18.285l39.911,0l0,-18.285c0,-2.978 -2.414,-5.393 -5.392,-5.393Z" style="fill:#31333e;fill-rule:nonzero;"/><path d="M376.247,162.167c-9.186,-27.61 -43.572,-22.988 -55.962,-3.087c-8.854,14.226 -11.992,42.556 -2.733,58.749c3.694,6.458 10.376,6.52 17.23,10.829c6.854,4.308 9.834,10.319 17.229,10.83c18.542,1.282 42.628,-13.879 51.483,-28.107c12.387,-19.9 1.478,-52.994 -27.247,-49.214Z" style="fill:#31333e;fill-rule:nonzero;"/><path d="M376.247,162.167l3.601,-27.059l9.543,2.599l-13.144,24.46Z" style="fill:#31333e;fill-rule:nonzero;"/><path d="M412.282,155.718c0,0 -24.387,-15.289 -35.738,6.439c13.393,12.071 35.738,-6.439 35.738,-6.439Z" style="fill:#31333e;fill-rule:nonzero;"/><path d="M48.638,240.526l-0.603,0c-10.003,0 -18.111,-8.107 -18.111,-18.111l0,-6.79c0,-10.001 8.108,-18.108 18.111,-18.108l419.54,0c10.001,0 18.109,8.107 18.109,18.108l0,6.79c0,8.822 -6.306,16.17 -14.655,17.782l-20.118,203.474c-2.083,21.068 -19.927,37.815 -39.898,37.815l-302.395,0c-17.84,0 -33.983,-13.366 -38.708,-31.237l-0.371,0l0,-1.518c-0.373,-1.653 -0.648,-3.342 -0.818,-5.06l-20.083,-203.145Z" style="fill:#31333e;fill-rule:nonzero;"/><path d="M35.48,51.54l-35.48,12.828l60.355,166.936c3.507,9.701 14.212,14.72 23.913,11.214l0.353,-0.129c9.701,-3.507 14.721,-14.212 11.214,-23.913l-60.355,-166.936Z" style="fill:#31333e;fill-rule:nonzero;"/><path d="M500,56.822l-36.804,-8.299l-39.045,173.165c-2.269,10.062 4.048,20.057 14.11,22.326l0.369,0.083c10.06,2.27 20.057,-4.048 22.324,-14.11l39.046,-173.165Z" style="fill:#31333e;fill-rule:nonzero;"/><path d="M169.562,260.285c4.643,0 8.856,0.97 12.641,2.91c3.784,1.94 6.71,4.659 8.777,8.157c2.067,3.498 3.101,7.457 3.101,11.878c0,4.611 -0.994,8.65 -2.982,12.116c-1.987,3.467 -4.913,6.202 -8.777,8.205c-3.864,2.003 -8.117,3.005 -12.76,3.005c-4.675,0 -8.921,-1.002 -12.737,-3.005c-3.816,-2.003 -6.718,-4.738 -8.706,-8.205c-1.987,-3.466 -2.981,-7.505 -2.981,-12.116c0,-4.484 1.049,-8.467 3.148,-11.95c2.099,-3.482 5.025,-6.185 8.778,-8.109c3.752,-1.924 7.918,-2.886 12.498,-2.886Zm-12.117,22.945c0,4.452 1.089,8.006 3.268,10.661c2.178,2.656 5.096,3.983 8.753,3.983c3.816,0 6.822,-1.272 9.016,-3.816c2.194,-2.544 3.291,-6.185 3.291,-10.924c0,-4.515 -1.105,-8.006 -3.315,-10.47c-2.21,-2.465 -5.207,-3.697 -8.992,-3.697c-3.562,0 -6.456,1.304 -8.682,3.911c-2.226,2.608 -3.339,6.059 -3.339,10.352Z" style="fill:#fff;fill-rule:nonzero;"/><path d="M228.951,260.285c1.558,0 3.093,0.35 4.603,1.05c1.511,0.699 3.268,1.876 5.271,3.53l-4.198,10.255c-3.402,-2.544 -6.137,-3.816 -8.204,-3.816c-1.813,0 -3.602,0.676 -5.367,2.028c-1.765,1.351 -3.18,3.14 -4.245,5.366c-1.066,2.226 -1.598,4.452 -1.598,6.678l0,20.322l-11.735,0l0,-44.554l11.735,0l0,11.353l0.19,0c2.131,-4.293 4.278,-7.402 6.44,-9.326c2.163,-1.924 4.532,-2.886 7.108,-2.886Z" style="fill:#fff;fill-rule:nonzero;"/><path d="M272.455,262.145l0,-23.087l11.687,0l0,66.64l-20.607,0c-7.124,0 -12.824,-2.052 -17.101,-6.154c-4.278,-4.102 -6.416,-9.699 -6.416,-16.791c0,-4.198 0.994,-8.014 2.981,-11.449c1.988,-3.434 4.723,-6.129 8.205,-8.085c3.482,-1.956 7.243,-2.934 11.281,-2.934c3.117,0 6.44,0.62 9.97,1.86Zm-6.153,34.585l6.153,0l0,-25.807c-2.417,-1.241 -4.929,-1.861 -7.537,-1.861c-3.911,0 -7.036,1.225 -9.373,3.673c-2.338,2.449 -3.506,5.661 -3.506,9.636c0,9.572 4.754,14.359 14.263,14.359Z" style="fill:#fff;fill-rule:nonzero;"/><path d="M315.817,260.285c6.551,0 11.734,2.099 15.55,6.297c3.817,4.198 5.725,10.001 5.725,17.411l0,1.765l-31.531,0c0.477,3.975 1.963,7.036 4.46,9.183c2.496,2.146 5.923,3.22 10.28,3.22c2.798,0 5.493,-0.485 8.085,-1.455c2.592,-0.97 5.271,-2.441 8.038,-4.413l0,8.73c-5.216,3.689 -11.544,5.533 -18.986,5.533c-7.028,0 -12.768,-2.115 -17.22,-6.344c-4.452,-4.23 -6.678,-9.859 -6.678,-16.887c0,-6.773 2.059,-12.307 6.177,-16.6c4.118,-4.293 9.485,-6.44 16.1,-6.44Zm10.256,18.365c-0.319,-3.243 -1.304,-5.779 -2.958,-7.608c-1.654,-1.829 -3.928,-2.743 -6.821,-2.743c-2.958,0 -5.335,0.875 -7.132,2.624c-1.797,1.749 -2.934,4.325 -3.411,7.727l20.322,0Z" style="fill:#fff;fill-rule:nonzero;"/><path d="M371.771,260.285c1.559,0 3.093,0.35 4.603,1.05c1.511,0.699 3.268,1.876 5.272,3.53l-4.198,10.255c-3.403,-2.544 -6.138,-3.816 -8.205,-3.816c-1.813,0 -3.602,0.676 -5.366,2.028c-1.765,1.351 -3.181,3.14 -4.246,5.366c-1.065,2.226 -1.598,4.452 -1.598,6.678l0,20.322l-11.735,0l0,-44.554l11.735,0l0,11.353l0.191,0c2.131,-4.293 4.277,-7.402 6.44,-9.326c2.162,-1.924 4.531,-2.886 7.107,-2.886Z" style="fill:#fff;fill-rule:nonzero;"/><path d="M165.121,388.163c0.825,0.31 1.418,0.877 1.779,1.703c0.361,0.825 0.336,1.65 -0.077,2.476l-1.238,3.095c-0.206,0.412 -0.439,0.825 -0.696,1.238c-0.258,0.412 -0.491,0.877 -0.697,1.393c-1.032,2.063 -2.166,4.049 -3.404,5.958c-1.238,1.908 -2.683,3.688 -4.334,5.339c-1.753,1.753 -3.739,3.146 -5.958,4.178c-2.218,1.032 -4.771,1.547 -7.66,1.547c-1.547,0 -2.992,-0.154 -4.333,-0.464c-2.682,-0.825 -4.9,-2.115 -6.654,-3.869c-3.199,4.333 -6.732,7.919 -10.601,10.756c-3.869,2.837 -8.124,4.152 -12.767,3.946l-0.155,0l-0.309,0l-0.155,0c-2.373,-0.103 -4.333,-0.568 -5.881,-1.393c-1.547,-0.825 -2.759,-1.908 -3.636,-3.25c-0.877,-1.341 -1.471,-2.888 -1.78,-4.642c-0.31,-1.754 -0.413,-3.611 -0.31,-5.571c0.207,-3.302 0.852,-6.706 1.935,-10.214c1.083,-3.508 2.037,-6.448 2.863,-8.821l0.619,-1.702l0,-0.155c2.063,-6.19 4.204,-12.458 6.422,-18.803c2.218,-6.345 4.462,-12.767 6.732,-19.266l3.559,-9.905c0.103,-0.309 0.258,-0.748 0.464,-1.315c0.207,-0.567 0.413,-1.212 0.619,-1.934c0.516,-1.445 1.058,-3.096 1.625,-4.953c0.568,-1.857 1.161,-3.662 1.78,-5.416c0.309,-0.825 0.877,-1.444 1.702,-1.857c0.826,-0.413 1.651,-0.464 2.476,-0.155c0.826,0.31 1.445,0.877 1.857,1.703c0.413,0.825 0.465,1.65 0.155,2.476c-0.619,1.753 -1.212,3.533 -1.78,5.339c-0.567,1.805 -1.109,3.378 -1.624,4.72c-0.207,0.825 -0.413,1.521 -0.619,2.089c-0.207,0.567 -0.362,1.057 -0.465,1.47l-3.559,9.904l-1.857,5.262c2.27,-2.373 4.668,-4.256 7.196,-5.649c2.528,-1.393 5.287,-2.037 8.279,-1.934c4.437,0.103 7.686,1.857 9.75,5.261c1.031,1.548 1.754,3.379 2.166,5.494c0.413,2.115 0.619,4.411 0.619,6.887l-0.154,0.773l0,0.155c-0.104,2.167 -0.439,4.617 -1.006,7.351c-0.568,2.734 -1.316,5.597 -2.244,8.589c-0.929,2.992 -2.038,6.035 -3.328,9.13c-1.289,3.095 -2.759,6.087 -4.41,8.976c-0.103,0.206 -0.181,0.387 -0.232,0.542c-0.052,0.154 -0.181,0.335 -0.387,0.541c1.135,1.341 2.734,2.373 4.797,3.095c0.516,0.103 0.955,0.181 1.316,0.232c0.361,0.052 0.799,0.078 1.315,0.078c1.96,0 3.663,-0.361 5.107,-1.083c1.444,-0.723 2.786,-1.651 4.024,-2.786c1.341,-1.341 2.527,-2.837 3.559,-4.488c1.032,-1.651 2.012,-3.353 2.94,-5.107c0.207,-0.412 0.387,-0.799 0.542,-1.16c0.155,-0.361 0.335,-0.8 0.542,-1.316c0.206,-0.412 0.412,-0.851 0.619,-1.315c0.206,-0.464 0.412,-0.955 0.619,-1.47c0.412,-0.826 1.031,-1.419 1.857,-1.78c0.825,-0.361 1.65,-0.335 2.476,0.077Zm-33.272,-0.154c0.825,0.206 1.47,0.696 1.934,1.47c0.464,0.774 0.593,1.625 0.387,2.553c-0.206,0.516 -0.335,0.98 -0.387,1.393c-0.051,0.413 -0.129,0.825 -0.232,1.238c2.063,-4.539 3.688,-9.027 4.875,-13.464c1.186,-4.436 1.883,-8.253 2.089,-11.451l0,-0.155l0,-0.619l0,-0.155c0.103,-1.754 0.026,-3.379 -0.232,-4.875c-0.258,-1.495 -0.697,-2.708 -1.316,-3.636c-0.928,-1.445 -2.424,-2.218 -4.488,-2.322c-3.198,-0.103 -6.164,1.161 -8.898,3.792c-2.734,2.631 -5.287,5.932 -7.66,9.904c-2.373,3.972 -4.54,8.254 -6.5,12.845c-1.96,4.591 -3.714,8.846 -5.261,12.767l-1.084,2.631c-0.515,1.753 -0.98,3.585 -1.392,5.493c-0.413,1.909 -0.723,3.74 -0.929,5.494c-0.103,2.167 0.206,4.024 0.929,5.571c0.722,1.548 2.218,2.373 4.487,2.476l0.465,0c3.611,0.103 7.067,-1.186 10.368,-3.869c3.302,-2.682 6.293,-6.087 8.976,-10.213c-0.825,-2.167 -1.238,-4.54 -1.238,-7.119c0,-2.476 0.361,-4.952 1.083,-7.428c0.206,-0.929 0.722,-1.599 1.548,-2.012c0.825,-0.413 1.65,-0.516 2.476,-0.309Z" style="fill:#fff;fill-rule:nonzero;"/><path d="M221.76,388.163c0.826,0.413 1.393,1.032 1.703,1.857c0.309,0.826 0.258,1.651 -0.155,2.476l-0.155,0.465c-1.444,3.301 -3.069,6.809 -4.875,10.523c-1.805,3.714 -3.843,7.17 -6.112,10.368c-2.27,3.199 -4.823,5.855 -7.661,7.97c-2.837,2.115 -5.958,3.173 -9.362,3.173l-0.155,0l-0.155,0c-2.063,0 -3.817,-0.413 -5.261,-1.238c-1.445,-0.826 -2.58,-1.909 -3.405,-3.25c-0.619,-0.929 -1.083,-1.96 -1.393,-3.095c-0.309,-1.135 -0.567,-2.27 -0.773,-3.405c-2.27,3.198 -4.798,5.829 -7.583,7.893c-2.786,2.063 -5.933,3.095 -9.44,3.095l-0.155,0c-2.063,0 -3.817,-0.413 -5.262,-1.238c-1.444,-0.826 -2.63,-1.909 -3.559,-3.25c-0.825,-1.238 -1.393,-2.579 -1.702,-4.024c-0.31,-1.444 -0.465,-2.94 -0.465,-4.488l0,-0.464c0,-2.373 0.568,-5.571 1.703,-9.595c0.516,-1.857 1.057,-3.817 1.625,-5.88c0.567,-2.064 1.263,-4.179 2.089,-6.345c0.413,-1.135 0.98,-2.786 1.702,-4.952c0.722,-2.167 1.651,-4.746 2.786,-7.738c1.341,-3.611 2.759,-7.454 4.255,-11.529c1.496,-4.075 2.966,-8.073 4.411,-11.993c0.309,-0.826 0.877,-1.419 1.702,-1.78c0.826,-0.361 1.651,-0.387 2.476,-0.077c0.826,0.309 1.419,0.877 1.78,1.702c0.361,0.825 0.387,1.651 0.077,2.476c-1.65,4.539 -3.198,8.847 -4.642,12.922c-1.445,4.075 -2.734,7.609 -3.869,10.6c-1.032,2.786 -1.935,5.262 -2.708,7.429c-0.774,2.166 -1.367,3.817 -1.78,4.952c-0.825,2.166 -1.522,4.23 -2.089,6.19c-0.568,1.96 -1.109,3.817 -1.625,5.571c-0.413,1.754 -0.748,3.301 -1.006,4.643c-0.258,1.341 -0.387,2.527 -0.387,3.559l0,0.309c0,0.929 0.077,1.832 0.232,2.709c0.155,0.877 0.439,1.624 0.851,2.243c0.723,1.032 1.909,1.548 3.56,1.548c2.373,0 4.617,-0.928 6.731,-2.786c2.115,-1.857 4.101,-4.178 5.958,-6.963c1.858,-2.786 3.586,-5.829 5.185,-9.131c1.599,-3.301 3.017,-6.396 4.255,-9.285l0,-0.155c0.104,-0.103 0.155,-0.258 0.155,-0.464c0.413,-1.135 1.006,-2.786 1.78,-4.952c0.774,-2.167 1.676,-4.746 2.708,-7.738c1.444,-3.611 2.889,-7.454 4.333,-11.529c1.444,-4.075 2.889,-8.073 4.333,-11.993c0.31,-0.826 0.877,-1.419 1.703,-1.78c0.825,-0.361 1.65,-0.387 2.476,-0.077c0.825,0.309 1.444,0.877 1.857,1.702c0.412,0.825 0.464,1.651 0.154,2.476c-1.754,4.539 -3.353,8.847 -4.797,12.922c-1.444,4.075 -2.734,7.609 -3.869,10.6c-1.032,2.786 -1.908,5.262 -2.631,7.429c-0.722,2.166 -1.341,3.817 -1.857,4.952l0,0.154c0,0.104 -0.025,0.207 -0.077,0.31c-0.052,0.103 -0.077,0.206 -0.077,0.309c-0.723,2.064 -1.367,4.024 -1.935,5.881c-0.567,1.857 -1.057,3.559 -1.47,5.107c-0.929,3.405 -1.393,6.139 -1.393,8.202l0,0.309c0,0.929 0.078,1.832 0.232,2.709c0.155,0.877 0.439,1.624 0.851,2.243c0.723,1.032 1.858,1.548 3.405,1.548l0.155,0c2.373,0 4.617,-0.928 6.732,-2.786c2.115,-1.857 4.101,-4.178 5.958,-6.963c1.857,-2.786 3.559,-5.829 5.106,-9.131c1.548,-3.301 2.941,-6.396 4.179,-9.285l0.309,-0.464c0.31,-0.826 0.903,-1.419 1.78,-1.78c0.877,-0.361 1.728,-0.335 2.553,0.077Z" style="fill:#fff;fill-rule:nonzero;"/><path d="M278.4,388.163c0.825,0.413 1.393,1.032 1.702,1.857c0.31,0.826 0.31,1.651 0,2.476c-2.991,6.603 -6.241,11.994 -9.749,16.172c-3.508,4.179 -7.222,7.506 -11.142,9.982c-3.921,2.476 -7.893,4.178 -11.916,5.107c-4.024,0.928 -7.996,1.289 -11.916,1.083l-0.31,0l-0.155,0c-2.785,-0.206 -5.39,-0.722 -7.815,-1.548c-2.424,-0.825 -4.513,-2.115 -6.267,-3.868c-1.857,-1.754 -3.302,-3.921 -4.333,-6.5c-1.032,-2.579 -1.496,-5.623 -1.393,-9.131l0,-0.309l0,-0.155c0.206,-3.611 0.851,-7.402 1.934,-11.374c1.084,-3.972 2.502,-7.918 4.256,-11.839c1.754,-4.023 3.792,-7.841 6.113,-11.452c2.321,-3.61 4.72,-6.757 7.196,-9.44c2.373,-2.372 4.9,-4.178 7.583,-5.416c2.682,-1.444 5.365,-2.166 8.047,-2.166l0.774,0c1.754,0.103 3.404,0.49 4.952,1.16c1.547,0.671 2.889,1.677 4.023,3.018c2.27,2.579 3.405,6.087 3.405,10.523l0,0.929c0,1.96 -0.413,4.023 -1.238,6.19c-0.309,1.031 -0.722,2.012 -1.238,2.94c-0.516,0.929 -1.083,1.857 -1.702,2.786c-0.516,0.722 -1.213,1.16 -2.089,1.315c-0.877,0.155 -1.729,-0.026 -2.554,-0.542c-0.722,-0.515 -1.161,-1.212 -1.315,-2.089c-0.155,-0.877 0.025,-1.728 0.541,-2.553c0.929,-1.032 1.651,-2.373 2.167,-4.024c0.619,-1.341 0.928,-2.785 0.928,-4.333l0,-0.619c0,-2.889 -0.619,-4.952 -1.857,-6.19c-1.031,-1.135 -2.476,-1.805 -4.333,-2.012l-0.464,0c-0.825,0 -1.676,0.129 -2.553,0.387c-0.877,0.258 -1.78,0.593 -2.709,1.006c-0.928,0.516 -1.882,1.135 -2.863,1.857c-0.98,0.722 -1.882,1.548 -2.708,2.476c-2.269,2.373 -4.462,5.21 -6.577,8.512c-2.115,3.301 -3.998,6.757 -5.648,10.368c-1.548,3.611 -2.812,7.196 -3.792,10.755c-0.98,3.56 -1.573,6.938 -1.779,10.137l0,0.309c-0.104,4.849 1.134,8.408 3.714,10.678c1.135,1.135 2.553,2.012 4.255,2.631c1.703,0.619 3.586,0.98 5.649,1.083l0.309,0c3.302,0.103 6.681,-0.232 10.137,-1.006c3.456,-0.773 6.835,-2.192 10.136,-4.255c3.302,-2.064 6.526,-4.978 9.672,-8.744c3.147,-3.766 6.01,-8.589 8.589,-14.469c0.413,-0.826 1.032,-1.393 1.857,-1.703c0.825,-0.309 1.651,-0.309 2.476,0Z" style="fill:#fff;fill-rule:nonzero;"/><path d="M291.709,361.546c-0.413,1.135 -1.006,2.734 -1.78,4.797c-0.774,2.064 -1.65,4.462 -2.631,7.196c-0.98,2.734 -2.063,5.726 -3.249,8.976c-1.187,3.25 -2.399,6.525 -3.637,9.827c-1.135,2.992 -2.244,6.009 -3.327,9.053c-1.084,3.043 -2.089,5.932 -3.018,8.666c-0.928,2.734 -1.805,5.184 -2.631,7.351c-0.825,2.166 -1.444,3.92 -1.857,5.261c-0.309,0.929 -0.877,1.574 -1.702,1.935c-0.825,0.361 -1.651,0.438 -2.476,0.232c-0.826,-0.31 -1.445,-0.877 -1.857,-1.702c-0.413,-0.826 -0.464,-1.651 -0.155,-2.476c0.413,-1.238 1.006,-2.915 1.78,-5.03c0.773,-2.115 1.65,-4.539 2.631,-7.273c0.98,-2.734 2.011,-5.675 3.095,-8.821c1.083,-3.147 2.192,-6.268 3.327,-9.363l0.155,-0.155c1.134,-3.198 2.269,-6.396 3.404,-9.594c1.135,-3.199 2.218,-6.19 3.25,-8.976c1.032,-2.786 1.934,-5.236 2.708,-7.351c0.774,-2.115 1.419,-3.74 1.935,-4.875l0,-0.154c0.825,-2.27 1.418,-3.972 1.779,-5.107c0.361,-1.135 0.748,-2.167 1.161,-3.095c0.619,-1.857 1.212,-3.585 1.78,-5.184c0.567,-1.6 1.005,-2.915 1.315,-3.947l0.928,-2.63c0.516,-1.342 1.084,-2.941 1.703,-4.798c0.619,-1.857 1.341,-3.972 2.166,-6.345c0.31,-0.825 0.877,-1.418 1.703,-1.779c0.825,-0.361 1.65,-0.387 2.476,-0.078c0.825,0.31 1.444,0.877 1.857,1.703c0.412,0.825 0.464,1.65 0.154,2.476c-0.722,1.96 -1.418,3.894 -2.089,5.803c-0.67,1.908 -1.264,3.585 -1.779,5.029l-0.929,2.786c-1.341,4.023 -2.424,7.067 -3.25,9.13l-2.785,8.202l-0.155,0.31Zm48.283,26.617c0.825,0.31 1.393,0.903 1.702,1.78c0.31,0.877 0.31,1.728 0,2.553c-1.444,3.096 -3.017,6.449 -4.72,10.059c-1.702,3.611 -3.688,7.016 -5.958,10.214c-2.373,3.508 -5.029,6.422 -7.97,8.744c-2.94,2.321 -6.215,3.482 -9.826,3.482c-1.754,0 -3.276,-0.284 -4.566,-0.851c-1.289,-0.568 -2.45,-1.367 -3.482,-2.399c-1.031,-1.135 -1.805,-2.45 -2.321,-3.946c-0.516,-1.496 -0.877,-2.966 -1.083,-4.411l0,-0.155c0,-1.65 0.103,-3.353 0.309,-5.106l1.161,-9.905c0.155,-1.547 0.232,-3.043 0.232,-4.488c-0.103,-2.063 -0.593,-3.739 -1.47,-5.029c-0.877,-1.29 -2.657,-1.934 -5.339,-1.934c-0.928,0 -2.115,0.361 -3.559,1.083c-0.207,0.103 -0.465,0.232 -0.774,0.387c-0.31,0.154 -0.568,0.335 -0.774,0.541l-2.166,2.012c-0.826,0.619 -1.703,0.877 -2.631,0.774l-0.31,0c0,-0.103 -0.103,-0.155 -0.309,-0.155c0,0 -0.052,-0.051 -0.155,-0.155l-0.155,0c0,0 -0.051,-0.051 -0.154,-0.154c-0.413,-0.207 -0.723,-0.413 -0.929,-0.619c-0.516,-0.619 -0.774,-1.367 -0.774,-2.244c0,-0.877 0.258,-1.625 0.774,-2.244l2.631,-2.167l34.51,-31.569c0.722,-0.619 1.522,-0.903 2.398,-0.852c0.877,0.052 1.625,0.439 2.244,1.161c0.619,0.619 0.903,1.393 0.852,2.321c-0.052,0.929 -0.387,1.651 -1.006,2.167l-25.844,23.522c3.611,0.619 6.061,2.141 7.351,4.566c1.289,2.424 1.986,5.287 2.089,8.588c0,1.548 -0.103,3.173 -0.31,4.875c-0.206,1.703 -0.412,3.431 -0.619,5.184c-0.206,1.651 -0.387,3.224 -0.541,4.72c-0.155,1.496 -0.232,2.915 -0.232,4.256l0.154,0c0,1.754 0.516,3.25 1.548,4.488c0.825,0.825 1.908,1.238 3.25,1.238c2.373,0 4.591,-0.877 6.654,-2.631c2.063,-1.754 3.972,-3.972 5.726,-6.654c2.063,-2.992 3.92,-6.216 5.571,-9.672c1.651,-3.456 3.147,-6.68 4.488,-9.672c0.413,-0.826 1.032,-1.419 1.857,-1.78c0.825,-0.361 1.651,-0.335 2.476,0.077Z" style="fill:#fff;fill-rule:nonzero;"/><path d="M396.322,388.163c0.826,0.413 1.393,1.032 1.702,1.857c0.31,0.826 0.31,1.651 0,2.476c-2.991,6.603 -6.241,11.994 -9.749,16.172c-3.508,4.179 -7.222,7.506 -11.142,9.982c-3.921,2.476 -7.893,4.178 -11.916,5.107c-4.024,0.928 -7.996,1.289 -11.916,1.083l-0.31,0l-0.155,0c-2.785,-0.206 -5.39,-0.722 -7.815,-1.548c-2.424,-0.825 -4.513,-2.115 -6.267,-3.868c-1.857,-1.754 -3.301,-3.921 -4.333,-6.5c-1.032,-2.579 -1.496,-5.623 -1.393,-9.131l0,-0.309l0,-0.155c0.103,-2.063 0.361,-4.178 0.774,-6.345c0.413,-2.166 0.928,-4.384 1.547,-6.654c0,-0.103 0.026,-0.155 0.078,-0.155c0.051,0 0.077,-0.051 0.077,-0.155c1.032,-3.507 2.27,-6.809 3.714,-9.904c1.754,-4.023 3.792,-7.841 6.113,-11.452c2.321,-3.61 4.72,-6.757 7.196,-9.44c2.373,-2.372 4.901,-4.178 7.583,-5.416c2.682,-1.444 5.416,-2.166 8.202,-2.166c3.508,0 6.293,0.773 8.357,2.321c2.269,1.444 3.765,3.611 4.487,6.5c0.31,1.134 0.413,2.372 0.31,3.714c-0.103,1.341 -0.361,2.682 -0.774,4.023c-0.619,2.064 -1.573,4.05 -2.863,5.958c-1.289,1.909 -2.811,3.585 -4.565,5.03c-2.063,1.754 -4.307,3.301 -6.732,4.642c-2.424,1.341 -4.926,2.579 -7.505,3.714c-3.611,1.548 -7.016,2.837 -10.214,3.869c-3.198,1.032 -5.726,1.806 -7.583,2.321c-0.516,1.754 -0.903,3.457 -1.161,5.107c-0.258,1.651 -0.438,3.25 -0.541,4.798l0,0.309c-0.103,4.849 1.135,8.408 3.714,10.678c1.135,1.135 2.553,2.012 4.256,2.631c1.702,0.619 3.585,0.98 5.648,1.083l0.31,0c3.301,0.103 6.68,-0.232 10.136,-1.006c3.456,-0.773 6.835,-2.192 10.136,-4.255c3.302,-2.064 6.526,-4.978 9.672,-8.744c3.147,-3.766 6.01,-8.589 8.589,-14.469c0.413,-0.826 1.032,-1.393 1.857,-1.703c0.825,-0.309 1.651,-0.309 2.476,0Zm-51.223,-5.416l-1.393,3.559c1.754,-0.516 3.714,-1.16 5.881,-1.934c2.166,-0.774 4.436,-1.728 6.809,-2.863c2.27,-1.032 4.513,-2.167 6.732,-3.405c2.218,-1.238 4.204,-2.579 5.958,-4.023c2.682,-2.167 4.487,-4.798 5.416,-7.893c0.516,-1.65 0.619,-3.095 0.309,-4.333c-0.309,-1.135 -0.876,-1.96 -1.702,-2.476c-1.135,-0.825 -2.734,-1.238 -4.797,-1.238c-1.754,0 -3.559,0.464 -5.417,1.393c-0.928,0.516 -1.882,1.135 -2.862,1.857c-0.981,0.722 -1.883,1.548 -2.709,2.476c-2.269,2.373 -4.462,5.21 -6.577,8.512c-2.115,3.301 -3.997,6.757 -5.648,10.368Z" style="fill:#fff;fill-rule:nonzero;"/><path d="M428.666,388.163c0.825,0.413 1.392,1.032 1.702,1.857c0.309,0.826 0.258,1.651 -0.155,2.476c-1.651,3.508 -3.25,6.706 -4.797,9.595c-1.548,2.889 -3.095,5.52 -4.643,7.893c-3.198,4.849 -6.551,8.563 -10.059,11.142c-1.857,1.238 -3.817,2.166 -5.88,2.785c-2.064,0.723 -4.23,1.084 -6.5,1.084l-0.155,0c-1.547,0 -3.017,-0.284 -4.41,-0.851c-1.393,-0.568 -2.605,-1.419 -3.637,-2.554c-2.166,-2.373 -3.25,-5.571 -3.25,-9.595l0,-0.154l0,-0.31c0,-2.373 0.568,-5.571 1.703,-9.595c0.515,-1.857 1.057,-3.817 1.624,-5.88c0.568,-2.064 1.264,-4.179 2.09,-6.345c0.206,-0.825 0.619,-2.038 1.238,-3.637c0.619,-1.599 1.341,-3.585 2.166,-5.958c0.826,-2.373 1.702,-4.849 2.631,-7.428c0.929,-2.579 1.909,-5.21 2.94,-7.892c0.103,-0.413 0.361,-1.213 0.774,-2.399c0.413,-1.187 0.929,-2.657 1.548,-4.411l-9.75,0c-0.928,0 -1.702,-0.309 -2.321,-0.928c-0.619,-0.619 -0.929,-1.393 -0.929,-2.321c0,-0.826 0.31,-1.574 0.929,-2.244c0.619,-0.671 1.393,-1.006 2.321,-1.006l11.916,0l1.238,-3.405c0.722,-2.166 1.445,-4.307 2.167,-6.422c0.722,-2.115 1.392,-4.075 2.012,-5.881c0.619,-1.805 1.16,-3.353 1.624,-4.642c0.465,-1.29 0.8,-2.193 1.006,-2.708c0.31,-0.826 0.877,-1.445 1.703,-1.857c0.825,-0.413 1.65,-0.465 2.476,-0.155c0.825,0.309 1.444,0.877 1.857,1.702c0.412,0.825 0.464,1.651 0.154,2.476c-0.206,0.516 -0.541,1.419 -1.005,2.708c-0.465,1.29 -1.006,2.812 -1.625,4.566c-0.619,1.753 -1.29,3.714 -2.012,5.88c-0.722,2.167 -1.445,4.333 -2.167,6.5l-0.464,1.238l10.369,0c0.928,0 1.702,0.335 2.321,1.006c0.619,0.67 0.928,1.418 0.928,2.244c0,0.928 -0.309,1.702 -0.928,2.321c-0.619,0.619 -1.393,0.928 -2.321,0.928l-12.69,0c-0.722,2.167 -1.367,4.024 -1.935,5.572c-0.567,1.547 -0.954,2.682 -1.16,3.404c-1.135,3.095 -2.167,5.958 -3.095,8.589c-0.929,2.631 -1.754,4.926 -2.476,6.886c-0.723,1.961 -1.342,3.715 -1.857,5.262c-0.516,1.548 -0.981,2.889 -1.393,4.024c-0.826,2.166 -1.522,4.23 -2.089,6.19c-0.568,1.96 -1.11,3.817 -1.625,5.571c-0.413,1.754 -0.748,3.301 -1.006,4.643c-0.258,1.341 -0.387,2.527 -0.387,3.559l0,0.309c0,2.373 0.516,4.076 1.547,5.107c0.723,0.929 1.806,1.393 3.25,1.393l0.155,0c1.238,0 2.734,-0.258 4.488,-0.774c1.547,-0.516 2.94,-1.186 4.178,-2.012c1.445,-1.031 2.837,-2.321 4.179,-3.868c1.341,-1.548 2.733,-3.353 4.178,-5.417c1.444,-2.166 2.889,-4.642 4.333,-7.428c1.444,-2.785 2.94,-5.881 4.488,-9.285c0.412,-0.825 1.057,-1.393 1.934,-1.702c0.877,-0.31 1.728,-0.258 2.554,0.154Z" style="fill:#fff;fill-rule:nonzero;"/></g></svg>